<svg id="Layer_1" data-name="Layer 1" xmlns="http://www.w3.org/2000/svg" xmlns:xlink="http://www.w3.org/1999/xlink" viewBox="0 0 1061.06 643.44"><defs><style>.cls-1{fill:url(#linear-gradient);}.cls-2{fill:url(#linear-gradient-2);}.cls-3{fill:url(#linear-gradient-3);}.cls-4{fill:url(#linear-gradient-4);}.cls-5{fill:url(#linear-gradient-5);}.cls-6{fill:url(#linear-gradient-6);}.cls-7{fill:url(#linear-gradient-7);}.cls-8{fill:url(#linear-gradient-8);}.cls-9{fill:url(#linear-gradient-9);}.cls-10{fill:url(#linear-gradient-10);}.cls-11{fill:url(#linear-gradient-11);}</style><linearGradient id="linear-gradient" x1="637.2" y1="280.04" x2="622.97" y2="61.87" gradientUnits="userSpaceOnUse"><stop offset="0" stop-color="#df005d"/><stop offset="0.54" stop-color="#840042"/><stop offset="1" stop-color="#8b0732"/></linearGradient><linearGradient id="linear-gradient-2" x1="453.08" y1="247.37" x2="528.49" y2="247.37" xlink:href="#linear-gradient"/><linearGradient id="linear-gradient-3" x1="524.52" y1="274.18" x2="555.87" y2="274.18" gradientTransform="translate(2.37 -4.63) rotate(0.49)" xlink:href="#linear-gradient"/><linearGradient id="linear-gradient-4" x1="323.49" y1="121.19" x2="507.68" y2="121.19" xlink:href="#linear-gradient"/><linearGradient id="linear-gradient-5" x1="336.43" y1="167.5" x2="573.96" y2="167.5" xlink:href="#linear-gradient"/><linearGradient id="linear-gradient-6" x1="318.13" y1="132.65" x2="556.04" y2="132.65" xlink:href="#linear-gradient"/><linearGradient id="linear-gradient-7" x1="0" y1="462.3" x2="134.74" y2="462.3" xlink:href="#linear-gradient"/><linearGradient id="linear-gradient-8" x1="159.26" y1="462.3" x2="297.83" y2="462.3" xlink:href="#linear-gradient"/><linearGradient id="linear-gradient-9" x1="559.61" y1="159.55" x2="598.04" y2="680.13" xlink:href="#linear-gradient"/><linearGradient id="linear-gradient-10" x1="468.91" y1="513.06" x2="1061.06" y2="513.06" xlink:href="#linear-gradient"/><linearGradient id="linear-gradient-11" x1="904.71" y1="514.1" x2="1005.21" y2="514.1" xlink:href="#linear-gradient"/></defs><title>main logo</title><path class="cls-1" d="M742.93,286.54,595.75,38.16,524.3,163.6l73.59,124.19,36.26-.31L582.62,202.3a11.13,11.13,0,0,1,3.79-15.3h0a11.13,11.13,0,0,1,15.3,3.85l57.36,96.42,28.12-.24L622.06,179.07a11.13,11.13,0,0,1,4.1-15.46l1.09-.61a11.13,11.13,0,0,1,15,4.06L712.84,286.8Z"/><path class="cls-2" d="M528.49,248.21l-24.2,41.6-17.4.14L510.68,247a6.61,6.61,0,0,0,.81-3.14,6.44,6.44,0,0,0-.73-3,6.51,6.51,0,0,0-11.49-.22L471.44,290.1l-18.36.16,50.47-85.79Z"/><ellipse class="cls-3" cx="540.2" cy="274.18" rx="15.67" ry="15.33" transform="translate(-2.33 4.65) rotate(-0.49)"/><path class="cls-4" d="M323.49,216.36l2.66-17.29,37.25,6.14A23.26,23.26,0,0,0,389,193.84L486.41,18.5h21.27L399.48,207.93A33.86,33.86,0,0,1,386.26,221l-.22.12A25.47,25.47,0,0,1,369,223.32Z"/><path class="cls-5" d="M336.43,290.22l3.43-22.29,48,7.91a30,30,0,0,0,33-14.66L546.53,35.06H574L434.43,279.36a43.67,43.67,0,0,1-17.05,16.86l-.28.15a32.85,32.85,0,0,1-22,2.82Z"/><path class="cls-6" d="M318.13,255.57l3.43-22.33,48.11,7.92a30,30,0,0,0,33-14.68L528.57,0H556L416.29,244.69a43.74,43.74,0,0,1-17.08,16.89l-.28.15a32.9,32.9,0,0,1-22,2.83Z"/><path class="cls-7" d="M0,539.8V512.72H56.71q27.07,0,39-10.45t11.94-33V384.81h27.08v84.42q0,36-18.76,53.3T56.71,539.8Z"/><path class="cls-8" d="M159.26,539.8v-155H297.62v27.07H186.12V512.72H297.83V539.8Zm22.17-67.37V449.62h82.91v22.81Z"/><path class="cls-9" d="M843.07,512.73V539.8H704.49V411.88H562.83c-6.25,0-11.07,1.69-14.51,5s-5.09,8-5.09,14,1.72,10.57,5.21,13.86,8.2,4.89,14.18,4.89h71q23.67,0,35.95,11.1c8.17,7.37,12.26,18.63,12.26,33.67a53.37,53.37,0,0,1-3,18.12,38.84,38.84,0,0,1-9,14.39,40.77,40.77,0,0,1-15,9.5,60,60,0,0,1-21.23,3.41H465l-39.23-43.05h-58v-23.9h64.61q14.7,0,22.15-8T462,441.73q0-15.15-7.76-22.5t-21.85-7.34H347.92V539.8H321.06v-155H432.37A66.52,66.52,0,0,1,456,388.76a47.48,47.48,0,0,1,28.78,29.11,67.87,67.87,0,0,1,3.82,23.45q0,19.37-8.41,32.51a47.2,47.2,0,0,1-23.57,18.86l19.87,20H633.6q10.88,0,16.76-5.57c3.91-3.67,5.86-8.59,5.86-14.69q0-10-5.86-15t-16.76-5H562.42a55.56,55.56,0,0,1-19.72-3.32A42,42,0,0,1,527.77,460a40.24,40.24,0,0,1-9.39-14,46.1,46.1,0,0,1-3.32-17.71,47.43,47.43,0,0,1,3.11-17.35,37,37,0,0,1,9.15-13.77,43.89,43.89,0,0,1,15-9.06,59.09,59.09,0,0,1,20.46-3.29h280v27.06H731.35V449.6h78.23v22.83H731.35v40.3Z"/><path class="cls-10" d="M971.72,391.42a21.23,21.23,0,0,0-5.42-6.4,12.17,12.17,0,0,0-7.58-2.34,12.55,12.55,0,0,0-7.67,2.34,20.71,20.71,0,0,0-5.54,6.4l-91,149.44L468.91,643.44,1061.06,539.8Zm-14.06,29.4,47.5,79.86.06.09L935.1,519.43l-30.38,8.08-12,3.2Z"/><polygon class="cls-11" points="1005.21 500.77 935.1 519.43 904.72 527.51 1005.15 500.68 1005.21 500.77"/></svg>