<svg id="Layer_1" data-name="Layer 1" xmlns="http://www.w3.org/2000/svg" xmlns:xlink="http://www.w3.org/1999/xlink" viewBox="0 0 1085.64 266.79"><defs><style>.cls-1{fill:url(#linear-gradient);}.cls-2{fill:url(#linear-gradient-2);}.cls-3{fill:url(#linear-gradient-3);}.cls-4{fill:url(#linear-gradient-4);}.cls-5{fill:url(#linear-gradient-5);}</style><linearGradient id="linear-gradient" y1="81.46" x2="137.86" y2="81.46" gradientUnits="userSpaceOnUse"><stop offset="0" stop-color="#df005d"/><stop offset="0.54" stop-color="#840042"/><stop offset="1" stop-color="#8b0732"/></linearGradient><linearGradient id="linear-gradient-2" x1="162.95" y1="81.46" x2="304.73" y2="81.46" xlink:href="#linear-gradient"/><linearGradient id="linear-gradient-3" x1="572.57" y1="-228.31" x2="611.9" y2="304.34" xlink:href="#linear-gradient"/><linearGradient id="linear-gradient-4" x1="479.77" y1="133.4" x2="1085.64" y2="133.4" xlink:href="#linear-gradient"/><linearGradient id="linear-gradient-5" x1="925.67" y1="134.46" x2="1028.5" y2="134.46" xlink:href="#linear-gradient"/></defs><title>font</title><path class="cls-1" d="M0,160.75v-27.7H58q27.7,0,39.92-10.69t12.21-33.81V2.17h27.7V88.55q0,36.87-19.2,54.53T58,160.75Z"/><path class="cls-2" d="M162.95,160.75V2.17H304.51v27.7H190.43V133.05h114.3v27.7Zm22.69-68.93V68.48h84.83V91.82Z"/><path class="cls-3" d="M862.59,133.06v27.69H720.81V29.87H575.87c-6.39,0-11.33,1.73-14.85,5.12s-5.21,8.18-5.21,14.3,1.76,10.82,5.33,14.18,8.39,5,14.51,5h72.62q24.22,0,36.78,11.36c8.36,7.54,12.54,19.06,12.54,34.45a54.6,54.6,0,0,1-3.06,18.54,39.74,39.74,0,0,1-9.18,14.72A41.71,41.71,0,0,1,670,157.27a61.42,61.42,0,0,1-21.72,3.48H475.74L435.6,116.7H376.28V92.25h66.11q15,0,22.66-8.18t7.63-23.66q0-15.5-7.94-23t-22.36-7.51H356V160.75H328.5V2.18H442.38a68.06,68.06,0,0,1,24.21,4A48.58,48.58,0,0,1,496,36a69.45,69.45,0,0,1,3.91,24q0,19.81-8.6,33.27a48.3,48.3,0,0,1-24.12,19.3l20.33,20.51H648.28q11.13,0,17.15-5.7c4-3.76,6-8.79,6-15q0-10.27-6-15.39t-17.15-5.12H575.45a56.84,56.84,0,0,1-20.18-3.39A43,43,0,0,1,540,79.07a41.17,41.17,0,0,1-9.6-14.3A47.17,47.17,0,0,1,527,46.66a48.52,48.52,0,0,1,3.18-17.75,37.82,37.82,0,0,1,9.36-14.09,44.91,44.91,0,0,1,15.39-9.27,60.46,60.46,0,0,1,20.93-3.36H862.38V29.87H748.29v38.6h80V91.83h-80v41.23Z"/><path class="cls-4" d="M994.23,8.94a21.73,21.73,0,0,0-5.54-6.54A12.45,12.45,0,0,0,980.93,0a12.84,12.84,0,0,0-7.85,2.39,21.19,21.19,0,0,0-5.67,6.54L874.29,161.84,479.77,266.79l605.87-106ZM979.84,39l48.6,81.71.06.09-71.74,19.09-31.08,8.27-12.3,3.27Z"/><polygon class="cls-5" points="1028.5 120.82 956.76 139.91 925.67 148.18 1028.44 120.73 1028.5 120.82"/></svg>